<?xml version="1.0" encoding="UTF-8" standalone="no"?>
<!DOCTYPE svg PUBLIC "-//W3C//DTD SVG 1.1//EN" "http://www.w3.org/Graphics/SVG/1.1/DTD/svg11.dtd">
<svg width="100%" height="100%" viewBox="0 0 582 383" version="1.1" xmlns="http://www.w3.org/2000/svg" xmlns:xlink="http://www.w3.org/1999/xlink" xml:space="preserve" xmlns:serif="http://www.serif.com/" style="fill-rule:evenodd;clip-rule:evenodd;stroke-linejoin:round;stroke-miterlimit:2;">
    <g transform="matrix(1,0,0,1,-448.333,-195.592)">
        <g transform="matrix(2,0,0,2,0,0)">
            <g>
                <g transform="matrix(1,0,0,1,325.268,211.976)">
                    <path d="M0,-69.295C13.251,-79.524 31.568,-87.095 54.141,-91.524L54.141,-45.358C73.252,-31.633 96.665,-23.539 121.937,-23.539C147.21,-23.539 170.621,-31.639 189.732,-45.365L189.732,-113.98L170.335,-113.98L170.335,-55.729C156.073,-47.508 139.547,-42.795 121.937,-42.795C104.326,-42.795 87.8,-47.507 73.539,-55.728L73.539,-114.18L62.467,-112.597C34.949,-108.66 12.148,-100.854 -5.303,-89.394C-8.278,-87.44 -11.087,-85.391 -13.729,-83.248C-16.463,-85.48 -19.376,-87.61 -22.468,-89.636C-39.912,-101.066 -62.655,-108.793 -90.067,-112.602L-101.101,-114.136L-101.101,40.599L-81.703,40.599L-81.703,-91.567C-59.102,-87.214 -40.76,-79.644 -27.511,-69.351C-32.375,-63.159 -36.194,-56.425 -38.937,-49.183C-49.356,-21.683 -42.547,11.03 -21.167,36.188L-13.777,44.885L-6.386,36.188C15.005,11.016 21.746,-21.799 11.205,-49.453C8.492,-56.572 4.747,-63.197 0,-69.295M-13.781,13.421C-24.649,-4.378 -27.407,-24.868 -20.798,-42.31C-19.065,-46.885 -16.717,-51.211 -13.784,-55.272C-10.929,-51.283 -8.632,-47.034 -6.921,-42.544C-0.225,-24.979 -2.926,-4.404 -13.781,13.421" style="fill:rgb(15,24,32);fill-rule:nonzero;"/>
                </g>
                <g transform="matrix(1,0,0,1,447.204,233.737)">
                    <path d="M0,-29.987C-24.781,-29.987 -47.972,-36.883 -67.795,-48.825L-67.795,18.838L-48.398,18.838L-48.398,-19.134C-33.201,-13.963 -16.924,-11.149 0,-11.149C16.924,-11.149 33.201,-13.963 48.398,-19.135L48.398,18.838L67.796,18.838L67.796,-48.81C47.974,-36.87 24.778,-29.987 0,-29.987" style="fill:rgb(15,24,32);fill-rule:nonzero;"/>
                </g>
                <g transform="matrix(1,0,0,1,251.041,288.974)">
                    <path d="M0,-24.187L0,0L-6.39,0L-6.39,-12.854L-11.574,-4.907L-15.233,-4.907L-20.418,-12.89L-20.418,0L-26.808,0L-26.808,-24.187L-20.764,-24.187L-13.404,-12.854L-6.044,-24.187L0,-24.187Z" style="fill:rgb(15,24,32);fill-rule:nonzero;"/>
                </g>
                <g transform="matrix(1,0,0,1,254.225,264.786)">
                    <path d="M0,24.187L9.504,0L16.413,0L25.911,24.187L19.348,24.187L17.97,20.387L7.947,20.387L6.563,24.187L0,24.187ZM9.85,15.202L16.067,15.202L13.577,8.225C13.372,7.638 13.168,7.051 12.958,5.772C12.754,7.051 12.544,7.638 12.335,8.225L9.85,15.202Z" style="fill:rgb(15,24,32);fill-rule:nonzero;"/>
                </g>
                <g transform="matrix(1,0,0,1,283.321,264.786)">
                    <path d="M0,24.187L0,0L10.19,0C15.097,0 20.103,1.762 20.103,8.157C20.103,12.162 18.137,14.337 15.474,15.407L22.148,24.187L14.924,24.187L9.153,16.308L6.39,16.308L6.39,24.187L0,24.187ZM6.39,11.124L10.463,11.124C12.298,11.124 13.54,10.191 13.54,8.325C13.54,6.459 12.298,5.531 10.463,5.531L6.39,5.531L6.39,11.124Z" style="fill:rgb(15,24,32);fill-rule:nonzero;"/>
                </g>
                <g transform="matrix(-1,0,0,1,623.895,-526.241)">
                    <rect x="308.75" y="791.027" width="6.395" height="24.187" style="fill:rgb(15,24,32);"/>
                </g>
                <g transform="matrix(1,0,0,1,320.57,264.785)">
                    <path d="M0,24.187L0,0L6.044,0L15.511,13.892C15.406,12.749 15.375,11.229 15.375,9.882L15.375,0L21.765,0L21.765,24.187L15.721,24.187L6.248,10.332C6.358,11.47 6.39,12.99 6.39,14.306L6.39,24.187L0,24.187Z" style="fill:rgb(15,24,32);fill-rule:nonzero;"/>
                </g>
                <g transform="matrix(1,0,0,1,365.173,288.974)">
                    <path d="M0,-24.187L0,-18.657L-11.019,-18.657L-11.019,-14.961L-1.033,-14.961L-1.033,-9.467L-11.019,-9.467L-11.019,-5.531L0.21,-5.531L0.21,0L-17.409,0L-17.409,-24.187L0,-24.187Z" style="fill:rgb(15,24,32);fill-rule:nonzero;"/>
                </g>
                <g transform="matrix(1,0,0,1,399.763,288.974)">
                    <path d="M0,-24.187L0,0L-6.395,0L-6.395,-9.226L-15.375,-9.226L-15.375,0L-21.765,0L-21.765,-24.187L-15.375,-24.187L-15.375,-14.924L-6.395,-14.924L-6.395,-24.187L0,-24.187Z" style="fill:rgb(15,24,32);fill-rule:nonzero;"/>
                </g>
                <g transform="matrix(1,0,0,1,422.605,288.974)">
                    <path d="M0,-24.187L0,-18.657L-11.024,-18.657L-11.024,-14.961L-1.038,-14.961L-1.038,-9.467L-11.024,-9.467L-11.024,-5.531L0.204,-5.531L0.204,0L-17.414,0L-17.414,-24.187L0,-24.187Z" style="fill:rgb(15,24,32);fill-rule:nonzero;"/>
                </g>
                <g transform="matrix(1,0,0,1,425.128,264.786)">
                    <path d="M0,24.187L9.504,0L16.408,0L25.906,24.187L19.343,24.187L17.964,20.387L7.947,20.387L6.563,24.187L0,24.187ZM9.845,15.202L16.067,15.202L13.577,8.225C13.372,7.638 13.163,7.051 12.958,5.772C12.749,7.051 12.544,7.638 12.335,8.225L9.845,15.202Z" style="fill:rgb(15,24,32);fill-rule:nonzero;"/>
                </g>
                <g transform="matrix(1,0,0,1,460.614,288.974)">
                    <path d="M0,-24.187L0,-5.704L11.055,-5.704L11.055,0L-6.395,0L-6.395,-24.187L0,-24.187Z" style="fill:rgb(15,24,32);fill-rule:nonzero;"/>
                </g>
                <g transform="matrix(1,0,0,1,489.635,288.974)">
                    <path d="M0,-24.187L0,-18.489L-6.804,-18.489L-6.804,0L-13.199,0L-13.199,-18.489L-20.035,-18.489L-20.035,-24.187L0,-24.187Z" style="fill:rgb(15,24,32);fill-rule:nonzero;"/>
                </g>
                <g transform="matrix(1,0,0,1,515,288.974)">
                    <path d="M0,-24.187L0,0L-6.395,0L-6.395,-9.226L-15.38,-9.226L-15.38,0L-21.765,0L-21.765,-24.187L-15.38,-24.187L-15.38,-14.924L-6.395,-14.924L-6.395,-24.187L0,-24.187Z" style="fill:rgb(15,24,32);fill-rule:nonzero;"/>
                </g>
            </g>
        </g>
    </g>
</svg>
